<mxfile compressed="false" host="Electron" modified="2021-09-10T13:18:52.140Z" agent="5.0 (Windows NT 10.0; Win64; x64) AppleWebKit/537.36 (KHTML, like Gecko) draw.io/15.1.3 Chrome/89.0.4389.128 Electron/12.1.0 Safari/537.36" version="15.1.3" etag="Ih1ScBbmWpLd7Toj-fVR" type="device" pages="2">
  <diagram id="Page-1" name="Page-1">
    <mxGraphModel dx="852" dy="494" grid="1" gridSize="10" guides="1" tooltips="1" connect="1" arrows="1" fold="1" page="1" pageScale="1" pageWidth="827" pageHeight="1169" math="0" shadow="1">
      <root>
        <mxCell id="0" />
        <mxCell id="1" parent="0" />
        <object a="b" c="d" label="R1" link="http://google.com" id="R1">
          <mxCell style="rounded=1;whiteSpace=wrap;html=1;" parent="1" vertex="1">
            <mxGeometry x="294" y="90" width="120" height="60" as="geometry" />
          </mxCell>
        </object>
      </root>
    </mxGraphModel>
  </diagram>
  <diagram id="Page-2" name="Page-2">
    <mxGraphModel dx="852" dy="494" grid="1" gridSize="10" guides="1" tooltips="1" connect="1" arrows="1" fold="1" page="1" pageScale="1" pageWidth="827" pageHeight="1169" math="0" shadow="1">
      <root>
        <mxCell id="0" />
        <mxCell id="1" parent="0" />
        <object label="R2" link="data:page/id,Page-1" id="R2">
          <mxCell style="rounded=1;whiteSpace=wrap;html=1;" parent="1" vertex="1">
            <mxGeometry x="200" y="150" width="120" height="60" as="geometry" />
          </mxCell>
        </object>
        <object label="R3" id="R3">
          <mxCell style="rounded=1;whiteSpace=wrap;html=1;" parent="1" vertex="1">
            <mxGeometry x="530" y="150" width="120" height="60" as="geometry" />
          </mxCell>
        </object>
        <object label="uplink" link="http://cmdb.local" media="10G-LR" speed="1G" id="f9fc588264927bc0ff78958891484dd6">
          <mxCell style="endArrow=none;" parent="1" source="R2" target="R3" edge="1">
            <mxGeometry relative="1" as="geometry" />
          </mxCell>
        </object>
      </root>
    </mxGraphModel>
  </diagram>
</mxfile>
